<?xml version="1.0" encoding="utf-8"?>
<svg version="1.1" xmlns="http://www.w3.org/2000/svg" xmlns:xlink="http://www.w3.org/1999/xlink"
	 width="200px" height="200px" viewBox="0 0 200 200" style="enable-background:new 0 0 200 200;" xml:space="preserve">
<style type="text/css">
	.st0{fill:#D10000;}
	.st1{font-family:'PalatinoLinotype-Roman';}
	.st2{font-size:12px;}
</style>
<g>
	<g>
		<polygon class="st0" points="52.4,120 51,120 45,126 46.4,126 		"/>
		<polygon class="st0" points="46.9,120 45.5,120 39.5,126 40.9,126 		"/>
		<polygon class="st0" points="63.3,120 61.9,120 55.9,126 57.3,126 		"/>
		<polygon class="st0" points="34.5,120 29.5,125 29.5,126 30,126 36,120 		"/>
		<polygon class="st0" points="68.8,120 67.4,120 61.4,126 62.8,126 		"/>
		<polygon class="st0" points="29.5,121 30.5,120 29.5,120 		"/>
		<polygon class="st0" points="41.4,120 40,120 34,126 35.4,126 		"/>
		<polygon class="st0" points="57.9,120 56.5,120 50.5,126 51.9,126 		"/>
		<polygon class="st0" points="107,120.2 107,120 105.8,120 99.8,126 101.2,126 		"/>
		<polygon class="st0" points="96.2,120 94.8,120 88.8,126 90.2,126 		"/>
		<polygon class="st0" points="101.7,120 100.3,120 94.3,126 95.7,126 		"/>
		<polygon class="st0" points="107,125.7 107,124.2 105.2,126 106.7,126 		"/>
		<polygon class="st0" points="79.8,120 78.4,120 72.4,126 73.8,126 		"/>
		<polygon class="st0" points="90.7,120 89.3,120 83.3,126 84.7,126 		"/>
		<polygon class="st0" points="74.3,120 72.9,120 66.9,126 68.3,126 		"/>
		<polygon class="st0" points="85.3,120 83.8,120 77.8,126 79.3,126 		"/>
	</g>
	<g>
		<polygon class="st0" points="133,101.7 132.1,102.2 136.3,106.4 137.1,105.8 		"/>
		<polygon class="st0" points="139.5,97.2 138.6,97.8 142.8,101.9 143.6,101.4 		"/>
		<polygon class="st0" points="126.4,106.1 125.6,106.7 129.8,110.8 130.6,110.3 		"/>
		<polygon class="st0" points="129.7,103.9 128.9,104.4 133,108.6 133.9,108 		"/>
		<polygon class="st0" points="123.2,108.3 122.3,108.9 126.5,113 127.4,112.5 		"/>
		<polygon class="st0" points="136.2,99.4 135.4,100 139.5,104.2 140.4,103.6 		"/>
		<polygon class="st0" points="110.1,117.2 109.3,117.8 113.5,121.9 114.3,121.3 		"/>
		<polygon class="st0" points="106.9,119.4 106.8,119.5 106.8,120.7 110.2,124.1 111.1,123.6 		"/>
		<polygon class="st0" points="106.8,124.7 106.8,126.2 107,126.4 107.8,125.8 		"/>
		<polygon class="st0" points="142.7,95 141.9,95.6 146.1,99.7 146.9,99.2 		"/>
		<polygon class="st0" points="113.4,115 112.6,115.5 116.7,119.7 117.6,119.1 		"/>
		<polygon class="st0" points="119.9,110.5 119.1,111.1 123.3,115.3 124.1,114.7 		"/>
		<polygon class="st0" points="116.7,112.7 115.8,113.3 120,117.5 120.8,116.9 		"/>
		<polygon class="st0" points="155.8,86.1 154.9,86.7 159.1,90.9 159.9,90.3 		"/>
		<polygon class="st0" points="178.6,70.6 177.8,71.2 181.9,75.3 182.8,74.7 		"/>
		<polygon class="st0" points="172.1,75 171.2,75.6 175.4,79.8 176.2,79.2 		"/>
		<polygon class="st0" points="175.3,72.8 174.5,73.4 178.7,77.5 179.5,77 		"/>
		<polygon class="st0" points="181.9,68.4 181,68.9 185.2,73.1 186,72.5 		"/>
		<polygon class="st0" points="188.4,63.9 187.5,64.5 189,66 189,64.5 		"/>
		<polygon class="st0" points="185.1,66.1 184.3,66.7 188.4,70.9 189,70.5 189,70 		"/>
		<polygon class="st0" points="165.6,79.5 164.7,80 168.9,84.2 169.7,83.6 		"/>
		<polygon class="st0" points="159,83.9 158.2,84.5 162.4,88.6 163.2,88.1 		"/>
		<polygon class="st0" points="152.5,88.3 151.7,88.9 155.8,93.1 156.7,92.5 		"/>
		<polygon class="st0" points="168.8,77.2 168,77.8 172.1,82 173,81.4 		"/>
		<polygon class="st0" points="149.3,90.6 148.4,91.1 152.6,95.3 153.4,94.7 		"/>
		<polygon class="st0" points="146,92.8 145.2,93.3 149.3,97.5 150.2,96.9 		"/>
		<polygon class="st0" points="162.3,81.7 161.5,82.2 165.6,86.4 166.5,85.8 		"/>
	</g>
	<g>
		<path d="M107,127H29c-0.6,0-1-0.4-1-1v-6c0-0.6,0.4-1,1-1h78c0.6,0,1,0.4,1,1v6C108,126.6,107.6,127,107,127z M30,125h76v-4H30
			V125z"/>
		<path d="M107,127c-0.2,0-0.3,0-0.5-0.1c-0.3-0.2-0.5-0.5-0.5-0.9v-6c0-0.3,0.2-0.6,0.4-0.8l82-56c0.3-0.2,0.7-0.2,1-0.1
			c0.3,0.2,0.5,0.5,0.5,0.9v6c0,0.3-0.2,0.6-0.4,0.8l-82,56C107.4,126.9,107.2,127,107,127z M108,120.5v3.6l80-54.6v-3.6L108,120.5z
			"/>
		<path d="M107,121H29c-0.4,0-0.8-0.3-1-0.7s0-0.9,0.4-1.1l82-56c0.2-0.1,0.4-0.2,0.6-0.2h78c0.4,0,0.8,0.3,1,0.7
			c0.1,0.4,0,0.9-0.4,1.1l-82,56C107.4,120.9,107.2,121,107,121z M32.2,119h74.5l79.1-54h-74.5L32.2,119z"/>
	</g>
	<g>

			<rect x="174.7" y="79.1" transform="matrix(1.171795e-02 -0.9999 0.9999 1.171795e-02 107.4011 267.7736)" width="28.9" height="1"/>

			<rect x="92.7" y="134.1" transform="matrix(1.171795e-02 -0.9999 0.9999 1.171795e-02 -28.6342 240.1347)" width="28.9" height="1"/>

			<rect x="14.1" y="136.7" transform="matrix(1.171795e-02 -0.9999 0.9999 1.171795e-02 -109.046 164.1091)" width="28.9" height="1"/>
		<g>
			<rect x="101.7" y="114.5" transform="matrix(0.8201 -0.5722 0.5722 0.8201 -39.2176 105.2674)" width="92.2" height="1"/>
			<g>
				<path d="M110.7,140.9l-0.1-2.1l-0.1,0l-1.7,2.6c-0.7,0.8-1.4,1.5-2.1,2.3c1-0.4,1.9-0.8,2.9-1.2l3.1-0.7l0-0.1L110.7,140.9z"/>
			</g>
			<g>
				<path d="M184.9,89.2l-1.9-0.9l0-0.1l3.1-0.7c1-0.4,1.9-0.8,2.9-1.2c-0.7,0.8-1.4,1.5-2.1,2.3l-1.7,2.6l-0.1,0L184.9,89.2z"/>
			</g>
		</g>
		<g>
			<rect x="68" y="108.1" transform="matrix(4.633897e-03 -1 1 4.633897e-03 -74.9689 210.9846)" width="1" height="70.2"/>
			<g>
				<path d="M102.7,143.3l-1.1,1.8l0.1,0l2.9-1.2c1-0.2,2-0.4,3.1-0.7c-1-0.2-2-0.5-3.1-0.7l-2.9-1.2l-0.1,0L102.7,143.3z"/>
			</g>
			<g>
				<path d="M34.3,143l1.1,1.8l-0.1,0l-2.9-1.2c-1-0.2-2-0.5-3.1-0.7c1-0.2,2-0.4,3.1-0.7l2.9-1.2l0.1,0L34.3,143z"/>
			</g>
		</g>
	</g>
	<rect x="6.8" y="119.1" width="22" height="1"/>
	<rect x="6.8" y="126.2" width="22" height="1"/>
	<g>
		<path d="M19.8,126.7c-0.3,0-0.5-0.2-0.5-0.5v-0.3c0-0.3,0.2-0.5,0.5-0.5s0.5,0.2,0.5,0.5v0.3C20.3,126.5,20.1,126.7,19.8,126.7z
			 M19.8,123.4c-0.3,0-0.5-0.2-0.5-0.5v-3c0-0.3,0.2-0.5,0.5-0.5s0.5,0.2,0.5,0.5v3C20.3,123.2,20.1,123.4,19.8,123.4z"/>
		<g>
			<path d="M19.8,143.2c-0.3,0-0.5-0.2-0.5-0.5v-11.6c0-0.3,0.2-0.5,0.5-0.5s0.5,0.2,0.5,0.5v11.6C20.3,142.9,20.1,143.2,19.8,143.2
				z"/>
			<g>
				<path d="M19.8,132l1.8,1.1l0-0.1l-1.2-2.9c-0.2-1-0.5-2-0.7-3.1c-0.2,1-0.5,2-0.7,3.1L18,133l0,0.1L19.8,132z"/>
			</g>
		</g>
		<g>
			<path d="M19.8,115.5c-0.3,0-0.5-0.2-0.5-0.5V70.3c0-0.3,0.2-0.5,0.5-0.5s0.5,0.2,0.5,0.5V115C20.3,115.3,20.1,115.5,19.8,115.5z"
				/>
			<g>
				<path d="M19.8,114.1L18,113l0,0.1l1.2,2.9c0.2,1,0.5,2,0.7,3.1c0.2-1,0.5-2,0.7-3.1l1.2-2.9l0-0.1L19.8,114.1z"/>
			</g>
		</g>
	</g>
</g>
<text transform="matrix(0.7878 -0.616 0.616 0.7878 146.4815 113.4746)" class="st1 st2">L</text>
<text transform="matrix(1 0 0 1 63.6672 140.6659)" class="st1 st2">a</text>
<g>
	<text transform="matrix(0 -1 1 0 16.0032 102.4722)" class="st1 st2">S</text>
</g>
</svg>
